<?xml version="1.0" encoding="utf-8" standalone="no"?>
<!DOCTYPE svg PUBLIC "-//W3C//DTD SVG 1.1//EN"
  "http://www.w3.org/Graphics/SVG/1.1/DTD/svg11.dtd">
<!-- Created with matplotlib (https://matplotlib.org/) -->
<svg height="345.6pt" version="1.1" viewBox="0 0 460.8 345.6" width="460.8pt" xmlns="http://www.w3.org/2000/svg" xmlns:xlink="http://www.w3.org/1999/xlink">
 <defs>
  <style type="text/css">
*{stroke-linecap:butt;stroke-linejoin:round;}
  </style>
 </defs>
 <g id="figure_1">
  <g id="patch_1">
   <path d="M 0 345.6 
L 460.8 345.6 
L 460.8 0 
L 0 0 
z
" style="fill:#ffffff;"/>
  </g>
  <g id="axes_1">
   <g id="patch_2">
    <path d="M 57.6 307.584 
L 414.72 307.584 
L 414.72 41.472 
L 57.6 41.472 
z
" style="fill:#ffffff;"/>
   </g>
   <g id="matplotlib.axis_1">
    <g id="xtick_1">
     <g id="line2d_1">
      <defs>
       <path d="M 0 0 
L 0 3.5 
" id="mc68f6c4aec" style="stroke:#000000;stroke-width:0.8;"/>
      </defs>
      <g>
       <use style="stroke:#000000;stroke-width:0.8;" x="72.58884" xlink:href="#mc68f6c4aec" y="307.584"/>
      </g>
     </g>
     <g id="text_1">
      <!-- 0 -->
      <defs>
       <path d="M 31.78125 66.40625 
Q 24.171875 66.40625 20.328125 58.90625 
Q 16.5 51.421875 16.5 36.375 
Q 16.5 21.390625 20.328125 13.890625 
Q 24.171875 6.390625 31.78125 6.390625 
Q 39.453125 6.390625 43.28125 13.890625 
Q 47.125 21.390625 47.125 36.375 
Q 47.125 51.421875 43.28125 58.90625 
Q 39.453125 66.40625 31.78125 66.40625 
z
M 31.78125 74.21875 
Q 44.046875 74.21875 50.515625 64.515625 
Q 56.984375 54.828125 56.984375 36.375 
Q 56.984375 17.96875 50.515625 8.265625 
Q 44.046875 -1.421875 31.78125 -1.421875 
Q 19.53125 -1.421875 13.0625 8.265625 
Q 6.59375 17.96875 6.59375 36.375 
Q 6.59375 54.828125 13.0625 64.515625 
Q 19.53125 74.21875 31.78125 74.21875 
z
" id="DejaVuSans-48"/>
      </defs>
      <g transform="translate(69.40759 322.182437)scale(0.1 -0.1)">
       <use xlink:href="#DejaVuSans-48"/>
      </g>
     </g>
    </g>
    <g id="xtick_2">
     <g id="line2d_2">
      <g>
       <use style="stroke:#000000;stroke-width:0.8;" x="149.640738" xlink:href="#mc68f6c4aec" y="307.584"/>
      </g>
     </g>
     <g id="text_2">
      <!-- 5 -->
      <defs>
       <path d="M 10.796875 72.90625 
L 49.515625 72.90625 
L 49.515625 64.59375 
L 19.828125 64.59375 
L 19.828125 46.734375 
Q 21.96875 47.46875 24.109375 47.828125 
Q 26.265625 48.1875 28.421875 48.1875 
Q 40.625 48.1875 47.75 41.5 
Q 54.890625 34.8125 54.890625 23.390625 
Q 54.890625 11.625 47.5625 5.09375 
Q 40.234375 -1.421875 26.90625 -1.421875 
Q 22.3125 -1.421875 17.546875 -0.640625 
Q 12.796875 0.140625 7.71875 1.703125 
L 7.71875 11.625 
Q 12.109375 9.234375 16.796875 8.0625 
Q 21.484375 6.890625 26.703125 6.890625 
Q 35.15625 6.890625 40.078125 11.328125 
Q 45.015625 15.765625 45.015625 23.390625 
Q 45.015625 31 40.078125 35.4375 
Q 35.15625 39.890625 26.703125 39.890625 
Q 22.75 39.890625 18.8125 39.015625 
Q 14.890625 38.140625 10.796875 36.28125 
z
" id="DejaVuSans-53"/>
      </defs>
      <g transform="translate(146.459488 322.182437)scale(0.1 -0.1)">
       <use xlink:href="#DejaVuSans-53"/>
      </g>
     </g>
    </g>
    <g id="xtick_3">
     <g id="line2d_3">
      <g>
       <use style="stroke:#000000;stroke-width:0.8;" x="226.692637" xlink:href="#mc68f6c4aec" y="307.584"/>
      </g>
     </g>
     <g id="text_3">
      <!-- 10 -->
      <defs>
       <path d="M 12.40625 8.296875 
L 28.515625 8.296875 
L 28.515625 63.921875 
L 10.984375 60.40625 
L 10.984375 69.390625 
L 28.421875 72.90625 
L 38.28125 72.90625 
L 38.28125 8.296875 
L 54.390625 8.296875 
L 54.390625 0 
L 12.40625 0 
z
" id="DejaVuSans-49"/>
      </defs>
      <g transform="translate(220.330137 322.182437)scale(0.1 -0.1)">
       <use xlink:href="#DejaVuSans-49"/>
       <use x="63.623047" xlink:href="#DejaVuSans-48"/>
      </g>
     </g>
    </g>
    <g id="xtick_4">
     <g id="line2d_4">
      <g>
       <use style="stroke:#000000;stroke-width:0.8;" x="303.744535" xlink:href="#mc68f6c4aec" y="307.584"/>
      </g>
     </g>
     <g id="text_4">
      <!-- 15 -->
      <g transform="translate(297.382035 322.182437)scale(0.1 -0.1)">
       <use xlink:href="#DejaVuSans-49"/>
       <use x="63.623047" xlink:href="#DejaVuSans-53"/>
      </g>
     </g>
    </g>
    <g id="xtick_5">
     <g id="line2d_5">
      <g>
       <use style="stroke:#000000;stroke-width:0.8;" x="380.796433" xlink:href="#mc68f6c4aec" y="307.584"/>
      </g>
     </g>
     <g id="text_5">
      <!-- 20 -->
      <defs>
       <path d="M 19.1875 8.296875 
L 53.609375 8.296875 
L 53.609375 0 
L 7.328125 0 
L 7.328125 8.296875 
Q 12.9375 14.109375 22.625 23.890625 
Q 32.328125 33.6875 34.8125 36.53125 
Q 39.546875 41.84375 41.421875 45.53125 
Q 43.3125 49.21875 43.3125 52.78125 
Q 43.3125 58.59375 39.234375 62.25 
Q 35.15625 65.921875 28.609375 65.921875 
Q 23.96875 65.921875 18.8125 64.3125 
Q 13.671875 62.703125 7.8125 59.421875 
L 7.8125 69.390625 
Q 13.765625 71.78125 18.9375 73 
Q 24.125 74.21875 28.421875 74.21875 
Q 39.75 74.21875 46.484375 68.546875 
Q 53.21875 62.890625 53.21875 53.421875 
Q 53.21875 48.921875 51.53125 44.890625 
Q 49.859375 40.875 45.40625 35.40625 
Q 44.1875 33.984375 37.640625 27.21875 
Q 31.109375 20.453125 19.1875 8.296875 
z
" id="DejaVuSans-50"/>
      </defs>
      <g transform="translate(374.433933 322.182437)scale(0.1 -0.1)">
       <use xlink:href="#DejaVuSans-50"/>
       <use x="63.623047" xlink:href="#DejaVuSans-48"/>
      </g>
     </g>
    </g>
   </g>
   <g id="matplotlib.axis_2">
    <g id="ytick_1">
     <g id="line2d_6">
      <defs>
       <path d="M 0 0 
L -3.5 0 
" id="m3fcdc4d647" style="stroke:#000000;stroke-width:0.8;"/>
      </defs>
      <g>
       <use style="stroke:#000000;stroke-width:0.8;" x="57.6" xlink:href="#m3fcdc4d647" y="282.856421"/>
      </g>
     </g>
     <g id="text_6">
      <!-- 4 -->
      <defs>
       <path d="M 37.796875 64.3125 
L 12.890625 25.390625 
L 37.796875 25.390625 
z
M 35.203125 72.90625 
L 47.609375 72.90625 
L 47.609375 25.390625 
L 58.015625 25.390625 
L 58.015625 17.1875 
L 47.609375 17.1875 
L 47.609375 0 
L 37.796875 0 
L 37.796875 17.1875 
L 4.890625 17.1875 
L 4.890625 26.703125 
z
" id="DejaVuSans-52"/>
      </defs>
      <g transform="translate(44.2375 286.65564)scale(0.1 -0.1)">
       <use xlink:href="#DejaVuSans-52"/>
      </g>
     </g>
    </g>
    <g id="ytick_2">
     <g id="line2d_7">
      <g>
       <use style="stroke:#000000;stroke-width:0.8;" x="57.6" xlink:href="#m3fcdc4d647" y="226.115368"/>
      </g>
     </g>
     <g id="text_7">
      <!-- 5 -->
      <g transform="translate(44.2375 229.914587)scale(0.1 -0.1)">
       <use xlink:href="#DejaVuSans-53"/>
      </g>
     </g>
    </g>
    <g id="ytick_3">
     <g id="line2d_8">
      <g>
       <use style="stroke:#000000;stroke-width:0.8;" x="57.6" xlink:href="#m3fcdc4d647" y="169.374316"/>
      </g>
     </g>
     <g id="text_8">
      <!-- 6 -->
      <defs>
       <path d="M 33.015625 40.375 
Q 26.375 40.375 22.484375 35.828125 
Q 18.609375 31.296875 18.609375 23.390625 
Q 18.609375 15.53125 22.484375 10.953125 
Q 26.375 6.390625 33.015625 6.390625 
Q 39.65625 6.390625 43.53125 10.953125 
Q 47.40625 15.53125 47.40625 23.390625 
Q 47.40625 31.296875 43.53125 35.828125 
Q 39.65625 40.375 33.015625 40.375 
z
M 52.59375 71.296875 
L 52.59375 62.3125 
Q 48.875 64.0625 45.09375 64.984375 
Q 41.3125 65.921875 37.59375 65.921875 
Q 27.828125 65.921875 22.671875 59.328125 
Q 17.53125 52.734375 16.796875 39.40625 
Q 19.671875 43.65625 24.015625 45.921875 
Q 28.375 48.1875 33.59375 48.1875 
Q 44.578125 48.1875 50.953125 41.515625 
Q 57.328125 34.859375 57.328125 23.390625 
Q 57.328125 12.15625 50.6875 5.359375 
Q 44.046875 -1.421875 33.015625 -1.421875 
Q 20.359375 -1.421875 13.671875 8.265625 
Q 6.984375 17.96875 6.984375 36.375 
Q 6.984375 53.65625 15.1875 63.9375 
Q 23.390625 74.21875 37.203125 74.21875 
Q 40.921875 74.21875 44.703125 73.484375 
Q 48.484375 72.75 52.59375 71.296875 
z
" id="DejaVuSans-54"/>
      </defs>
      <g transform="translate(44.2375 173.173535)scale(0.1 -0.1)">
       <use xlink:href="#DejaVuSans-54"/>
      </g>
     </g>
    </g>
    <g id="ytick_4">
     <g id="line2d_9">
      <g>
       <use style="stroke:#000000;stroke-width:0.8;" x="57.6" xlink:href="#m3fcdc4d647" y="112.633263"/>
      </g>
     </g>
     <g id="text_9">
      <!-- 7 -->
      <defs>
       <path d="M 8.203125 72.90625 
L 55.078125 72.90625 
L 55.078125 68.703125 
L 28.609375 0 
L 18.3125 0 
L 43.21875 64.59375 
L 8.203125 64.59375 
z
" id="DejaVuSans-55"/>
      </defs>
      <g transform="translate(44.2375 116.432482)scale(0.1 -0.1)">
       <use xlink:href="#DejaVuSans-55"/>
      </g>
     </g>
    </g>
    <g id="ytick_5">
     <g id="line2d_10">
      <g>
       <use style="stroke:#000000;stroke-width:0.8;" x="57.6" xlink:href="#m3fcdc4d647" y="55.892211"/>
      </g>
     </g>
     <g id="text_10">
      <!-- 8 -->
      <defs>
       <path d="M 31.78125 34.625 
Q 24.75 34.625 20.71875 30.859375 
Q 16.703125 27.09375 16.703125 20.515625 
Q 16.703125 13.921875 20.71875 10.15625 
Q 24.75 6.390625 31.78125 6.390625 
Q 38.8125 6.390625 42.859375 10.171875 
Q 46.921875 13.96875 46.921875 20.515625 
Q 46.921875 27.09375 42.890625 30.859375 
Q 38.875 34.625 31.78125 34.625 
z
M 21.921875 38.8125 
Q 15.578125 40.375 12.03125 44.71875 
Q 8.5 49.078125 8.5 55.328125 
Q 8.5 64.0625 14.71875 69.140625 
Q 20.953125 74.21875 31.78125 74.21875 
Q 42.671875 74.21875 48.875 69.140625 
Q 55.078125 64.0625 55.078125 55.328125 
Q 55.078125 49.078125 51.53125 44.71875 
Q 48 40.375 41.703125 38.8125 
Q 48.828125 37.15625 52.796875 32.3125 
Q 56.78125 27.484375 56.78125 20.515625 
Q 56.78125 9.90625 50.3125 4.234375 
Q 43.84375 -1.421875 31.78125 -1.421875 
Q 19.734375 -1.421875 13.25 4.234375 
Q 6.78125 9.90625 6.78125 20.515625 
Q 6.78125 27.484375 10.78125 32.3125 
Q 14.796875 37.15625 21.921875 38.8125 
z
M 18.3125 54.390625 
Q 18.3125 48.734375 21.84375 45.5625 
Q 25.390625 42.390625 31.78125 42.390625 
Q 38.140625 42.390625 41.71875 45.5625 
Q 45.3125 48.734375 45.3125 54.390625 
Q 45.3125 60.0625 41.71875 63.234375 
Q 38.140625 66.40625 31.78125 66.40625 
Q 25.390625 66.40625 21.84375 63.234375 
Q 18.3125 60.0625 18.3125 54.390625 
z
" id="DejaVuSans-56"/>
      </defs>
      <g transform="translate(44.2375 59.691429)scale(0.1 -0.1)">
       <use xlink:href="#DejaVuSans-56"/>
      </g>
     </g>
    </g>
   </g>
   <g id="line2d_11">
    <path clip-path="url(#p689a567daa)" d="M 73.832727 180.894316 
L 75.491243 185.138526 
L 75.905873 187.260632 
L 76.320502 187.260632 
L 77.14976 189.382737 
L 77.564389 189.382737 
L 77.979018 190.443789 
L 78.808276 190.443789 
L 79.222905 189.382737 
L 80.052163 189.382737 
L 80.466792 187.260632 
L 82.125308 183.016421 
L 82.954566 178.772211 
L 83.369195 177.711158 
L 83.783824 175.589053 
L 84.198454 174.528 
L 85.027712 174.528 
L 86.271599 177.711158 
L 86.686228 179.833263 
L 87.100857 183.016421 
L 87.515486 185.138526 
L 87.930115 188.321684 
L 88.344744 190.443789 
L 88.759373 193.626947 
L 89.588631 197.871158 
L 90.00326 201.054316 
L 90.832518 205.298526 
L 91.247147 208.481684 
L 91.661776 210.603789 
L 92.076405 210.603789 
L 92.905664 214.848 
L 95.393438 221.214316 
L 96.222696 221.214316 
L 96.637325 222.275368 
L 97.051954 221.214316 
L 97.881212 221.214316 
L 98.71047 219.092211 
L 99.125099 219.092211 
L 99.954357 216.970105 
L 100.783615 216.970105 
L 101.198245 215.909053 
L 101.612874 215.909053 
L 102.027503 214.848 
L 104.100648 214.848 
L 105.759164 219.092211 
L 106.588422 223.336421 
L 107.41768 225.458526 
L 107.832309 227.580632 
L 108.661567 229.702737 
L 109.076196 231.824842 
L 109.490825 231.824842 
L 109.905455 233.946947 
L 110.320084 233.946947 
L 110.734713 236.069053 
L 111.149342 236.069053 
L 111.563971 237.130105 
L 111.9786 237.130105 
L 112.393229 238.191158 
L 116.954148 238.191158 
L 117.368777 237.130105 
L 117.783406 237.130105 
L 118.198036 236.069053 
L 118.612665 236.069053 
L 121.100439 229.702737 
L 121.929697 225.458526 
L 122.758955 223.336421 
L 123.173584 221.214316 
L 123.588213 220.153263 
L 124.002842 218.031158 
L 124.417471 216.970105 
L 124.8321 214.848 
L 125.246729 214.848 
L 126.075987 210.603789 
L 126.490617 210.603789 
L 127.319875 208.481684 
L 128.149133 208.481684 
L 128.563762 210.603789 
L 128.978391 210.603789 
L 130.636907 214.848 
L 131.051536 214.848 
L 131.880794 216.970105 
L 132.295423 216.970105 
L 132.710052 218.031158 
L 133.124681 218.031158 
L 133.53931 219.092211 
L 134.368568 219.092211 
L 136.856343 225.458526 
L 137.270972 227.580632 
L 137.685601 227.580632 
L 138.10023 229.702737 
L 138.929488 231.824842 
L 139.344117 233.946947 
L 140.173375 236.069053 
L 140.588004 238.191158 
L 141.417262 240.313263 
L 141.831891 240.313263 
L 142.24652 242.435368 
L 143.075778 242.435368 
L 143.905037 240.313263 
L 144.734295 236.069053 
L 146.392811 231.824842 
L 146.80744 229.702737 
L 147.636698 229.702737 
L 148.465956 227.580632 
L 150.539101 227.580632 
L 150.95373 229.702737 
L 151.368359 229.702737 
L 151.782989 231.824842 
L 152.612247 233.946947 
L 153.441505 238.191158 
L 154.270763 238.191158 
L 155.100021 236.069053 
L 155.51465 233.946947 
L 155.929279 232.885895 
L 156.343908 229.702737 
L 156.758537 227.580632 
L 157.587795 221.214316 
L 158.417053 213.786947 
L 159.66094 204.237474 
L 160.904828 191.504842 
L 162.977973 180.894316 
L 163.807231 178.772211 
L 164.636489 178.772211 
L 165.465747 180.894316 
L 166.709634 187.260632 
L 167.124263 188.321684 
L 167.538892 191.504842 
L 167.953521 193.626947 
L 168.36815 196.810105 
L 169.197409 201.054316 
L 169.612038 202.115368 
L 170.855925 208.481684 
L 171.685183 210.603789 
L 172.514441 210.603789 
L 172.92907 212.725895 
L 173.758328 210.603789 
L 174.587586 210.603789 
L 175.002215 208.481684 
L 175.831473 206.359579 
L 176.246102 204.237474 
L 176.660731 204.237474 
L 177.075361 202.115368 
L 182.050909 189.382737 
L 182.465538 189.382737 
L 182.880167 187.260632 
L 183.294796 187.260632 
L 183.709425 185.138526 
L 184.124054 184.077474 
L 184.538683 180.894316 
L 186.611829 170.283789 
L 187.855716 158.612211 
L 188.270345 155.429053 
L 189.514232 143.757474 
L 189.928861 140.574316 
L 191.172748 127.841684 
L 192.831264 119.353263 
L 193.245893 119.353263 
L 193.660522 118.292211 
L 194.489781 120.414316 
L 195.733668 126.780632 
L 196.148297 127.841684 
L 199.465329 144.818526 
L 200.294587 146.940632 
L 201.123845 151.184842 
L 204.440878 159.673263 
L 204.855507 161.795368 
L 205.270136 161.795368 
L 205.684765 163.917474 
L 206.514023 166.039579 
L 206.928652 168.161684 
L 207.75791 179.833263 
L 209.416426 202.115368 
L 210.245684 215.909053 
L 211.489572 242.435368 
L 212.733459 265.778526 
L 213.977346 289.121684 
L 214.391975 293.365895 
L 214.806604 295.488 
L 215.635862 295.488 
L 216.050491 291.243789 
L 217.709007 251.984842 
L 218.123636 233.946947 
L 218.952894 212.725895 
L 220.196782 187.260632 
L 221.02604 185.138526 
L 221.855298 189.382737 
L 223.513814 205.298526 
L 223.928443 208.481684 
L 224.343072 210.603789 
L 225.17233 210.603789 
L 225.586959 208.481684 
L 226.001588 207.420632 
L 226.416217 204.237474 
L 230.147879 185.138526 
L 230.977137 183.016421 
L 232.635653 183.016421 
L 233.87954 189.382737 
L 234.294169 189.382737 
L 234.708798 191.504842 
L 236.367315 191.504842 
L 236.781944 189.382737 
L 237.611202 187.260632 
L 238.025831 185.138526 
L 238.44046 185.138526 
L 238.855089 183.016421 
L 239.269718 183.016421 
L 239.684347 180.894316 
L 242.172121 174.528 
L 243.830637 174.528 
L 245.489154 178.772211 
L 245.903783 178.772211 
L 246.733041 180.894316 
L 247.14767 180.894316 
L 247.976928 183.016421 
L 248.806186 183.016421 
L 249.220815 184.077474 
L 249.635444 184.077474 
L 250.050073 185.138526 
L 251.29396 185.138526 
L 251.708589 186.199579 
L 252.537847 186.199579 
L 252.952476 187.260632 
L 253.781735 187.260632 
L 254.196364 189.382737 
L 254.610993 189.382737 
L 255.440251 191.504842 
L 255.85488 191.504842 
L 256.269509 193.626947 
L 257.098767 195.749053 
L 257.513396 197.871158 
L 258.757283 197.871158 
L 260.00117 194.688 
L 260.830428 190.443789 
L 261.245057 187.260632 
L 261.659687 185.138526 
L 262.074316 181.955368 
L 262.488945 179.833263 
L 262.903574 176.650105 
L 263.318203 174.528 
L 264.147461 168.161684 
L 264.56209 163.917474 
L 266.220606 155.429053 
L 267.049864 153.306947 
L 267.464493 153.306947 
L 267.879122 155.429053 
L 268.293751 155.429053 
L 269.123009 157.551158 
L 269.537638 157.551158 
L 270.366897 155.429053 
L 270.781526 153.306947 
L 271.196155 153.306947 
L 271.610784 151.184842 
L 272.025413 148.001684 
L 272.440042 145.879579 
L 272.854671 144.818526 
L 273.2693 142.696421 
L 274.927816 138.452211 
L 276.171703 138.452211 
L 277.000961 136.330105 
L 277.41559 136.330105 
L 277.830219 134.208 
L 278.659478 132.085895 
L 280.317994 123.597474 
L 281.561881 110.864842 
L 281.97651 108.742737 
L 285.708171 71.605895 
L 286.1228 68.422737 
L 286.952059 60.995368 
L 287.366688 57.812211 
L 287.781317 55.690105 
L 288.195946 55.690105 
L 288.610575 53.568 
L 289.439833 55.690105 
L 290.68372 62.056421 
L 291.512978 71.605895 
L 291.927607 76.911158 
L 292.756865 90.704842 
L 296.073898 140.574316 
L 296.488527 144.818526 
L 296.903156 151.184842 
L 297.317785 155.429053 
L 297.732414 161.795368 
L 298.976301 173.466947 
L 299.39093 176.650105 
L 300.220188 178.772211 
L 301.049446 183.016421 
L 301.878704 185.138526 
L 304.366479 185.138526 
L 304.781108 183.016421 
L 305.610366 183.016421 
L 306.024995 180.894316 
L 306.439624 180.894316 
L 307.268882 178.772211 
L 307.683511 178.772211 
L 308.09814 176.650105 
L 308.927398 176.650105 
L 309.756656 174.528 
L 310.585914 174.528 
L 311.415172 172.405895 
L 311.829801 172.405895 
L 313.488318 168.161684 
L 313.902947 168.161684 
L 314.317576 166.039579 
L 314.732205 164.978526 
L 316.80535 154.368 
L 317.219979 153.306947 
L 318.049237 146.940632 
L 319.293124 140.574316 
L 320.122382 138.452211 
L 320.537011 136.330105 
L 321.36627 134.208 
L 321.780899 134.208 
L 322.195528 133.146947 
L 322.610157 134.208 
L 323.024786 134.208 
L 323.854044 136.330105 
L 325.51256 144.818526 
L 325.927189 149.062737 
L 326.341818 151.184842 
L 327.171076 157.551158 
L 328.000334 161.795368 
L 328.829592 168.161684 
L 330.488109 176.650105 
L 331.317367 178.772211 
L 332.146625 183.016421 
L 332.561254 183.016421 
L 332.975883 185.138526 
L 334.21977 188.321684 
L 335.049028 192.565895 
L 335.463657 195.749053 
L 337.122173 204.237474 
L 337.536803 208.481684 
L 340.853835 225.458526 
L 341.268464 225.458526 
L 342.097722 227.580632 
L 344.170867 227.580632 
L 345.000125 225.458526 
L 345.829383 225.458526 
L 346.244013 223.336421 
L 347.073271 223.336421 
L 347.4879 221.214316 
L 348.317158 221.214316 
L 348.731787 219.092211 
L 349.561045 219.092211 
L 350.390303 216.970105 
L 354.951223 216.970105 
L 355.365852 215.909053 
L 355.780481 215.909053 
L 356.19511 214.848 
L 358.682884 214.848 
L 361.170658 221.214316 
L 361.585287 223.336421 
L 362.414545 225.458526 
L 362.829175 227.580632 
L 363.658433 229.702737 
L 364.073062 231.824842 
L 365.731578 236.069053 
L 366.146207 236.069053 
L 366.560836 237.130105 
L 366.975465 236.069053 
L 367.390094 236.069053 
L 369.04861 231.824842 
L 369.463239 231.824842 
L 370.292497 229.702737 
L 377.341191 229.702737 
L 378.170449 227.580632 
L 378.999707 227.580632 
L 379.828966 225.458526 
L 380.243595 223.336421 
L 382.31674 195.749053 
L 383.145998 183.016421 
L 385.633772 129.963789 
L 387.292288 93.888 
L 387.706917 86.460632 
L 388.536176 76.911158 
L 389.365434 69.483789 
L 389.780063 66.300632 
L 390.194692 62.056421 
L 390.609321 60.995368 
L 391.438579 60.995368 
L 392.682466 64.178526 
L 393.097095 64.178526 
L 394.755611 68.422737 
L 395.17024 68.422737 
L 395.999498 70.544842 
L 396.828757 70.544842 
L 397.243386 71.605895 
L 397.658015 70.544842 
L 398.072644 71.605895 
L 398.487273 71.605895 
L 398.487273 71.605895 
" style="fill:none;stroke:#1f77b4;stroke-linecap:square;stroke-width:1.5;"/>
   </g>
   <g id="patch_3">
    <path d="M 57.6 307.584 
L 57.6 41.472 
" style="fill:none;stroke:#000000;stroke-linecap:square;stroke-linejoin:miter;stroke-width:0.8;"/>
   </g>
   <g id="patch_4">
    <path d="M 414.72 307.584 
L 414.72 41.472 
" style="fill:none;stroke:#000000;stroke-linecap:square;stroke-linejoin:miter;stroke-width:0.8;"/>
   </g>
   <g id="patch_5">
    <path d="M 57.6 307.584 
L 414.72 307.584 
" style="fill:none;stroke:#000000;stroke-linecap:square;stroke-linejoin:miter;stroke-width:0.8;"/>
   </g>
   <g id="patch_6">
    <path d="M 57.6 41.472 
L 414.72 41.472 
" style="fill:none;stroke:#000000;stroke-linecap:square;stroke-linejoin:miter;stroke-width:0.8;"/>
   </g>
  </g>
 </g>
 <defs>
  <clipPath id="p689a567daa">
   <rect height="266.112" width="357.12" x="57.6" y="41.472"/>
  </clipPath>
 </defs>
</svg>
